<svg width="1201" height="616" viewBox="0 0 1201 616" fill="none" xmlns="http://www.w3.org/2000/svg">
<rect width="1201" height="616" fill="#F7F7F9"/>
<mask id="path-1-inside-1_196_127" fill="white">
<rect x="154" y="79" width="893" height="458" rx="2"/>
</mask>
<rect x="154" y="79" width="893" height="458" rx="2" fill="white" stroke="#D3D7E0" stroke-width="6" stroke-linejoin="round" mask="url(#path-1-inside-1_196_127)"/>
<rect x="602.931" y="317.552" width="55.3522" height="98.7608" rx="2" transform="rotate(-90 602.931 317.552)" fill="#E3E3E3"/>
<line x1="0.5" y1="-0.5" x2="108.36" y2="-0.5" transform="matrix(0.872332 0.488914 -0.407367 0.913264 604.83 264.329)" stroke="#B5B2C6" stroke-linecap="round"/>
<line x1="0.5" y1="-0.5" x2="110.021" y2="-0.5" transform="matrix(0.876409 -0.481567 0.400673 0.916221 604.83 317.552)" stroke="#B5B2C6" stroke-linecap="round"/>
<rect x="602.931" y="317.552" width="55.3522" height="98.7608" rx="3" transform="rotate(-90 602.931 317.552)" fill="#ADA1EB"/>
<rect x="500.372" y="317.552" width="55.3522" height="98.7608" rx="2" transform="rotate(-90 500.372 317.552)" fill="#E3E3E3"/>
<line x1="0.5" y1="-0.5" x2="108.36" y2="-0.5" transform="matrix(0.872332 0.488914 -0.407367 0.913264 502.271 264.329)" stroke="#B5B2C6" stroke-linecap="round"/>
<line x1="0.5" y1="-0.5" x2="110.021" y2="-0.5" transform="matrix(0.876409 -0.481567 0.400673 0.916221 502.271 317.552)" stroke="#B5B2C6" stroke-linecap="round"/>
<rect x="500.372" y="317.552" width="55.3522" height="98.7608" rx="3" transform="rotate(-90 500.372 317.552)" fill="#ADA1EB"/>
<rect x="705.49" y="317.552" width="55.3522" height="98.7608" rx="2" transform="rotate(-90 705.49 317.552)" fill="#E3E3E3"/>
<line x1="0.5" y1="-0.5" x2="108.36" y2="-0.5" transform="matrix(0.872332 0.488914 -0.407367 0.913264 707.39 264.329)" stroke="#B5B2C6" stroke-linecap="round"/>
<line x1="0.5" y1="-0.5" x2="110.021" y2="-0.5" transform="matrix(0.876409 -0.481567 0.400673 0.916221 707.39 317.552)" stroke="#B5B2C6" stroke-linecap="round"/>
<rect x="705.49" y="317.552" width="55.3522" height="98.7608" rx="3" transform="rotate(-90 705.49 317.552)" fill="#ADA1EB"/>
<rect x="397.812" y="317.552" width="55.3522" height="98.7608" rx="3" transform="rotate(-90 397.812 317.552)" fill="#ADA1EB"/>
<rect x="397.812" y="317.552" width="55.3522" height="98.7608" rx="2" transform="rotate(-90 397.812 317.552)" fill="#E3E3E3"/>
<line x1="0.5" y1="-0.5" x2="108.36" y2="-0.5" transform="matrix(0.872332 0.488914 -0.407367 0.913264 399.712 264.329)" stroke="#B5B2C6" stroke-linecap="round"/>
<line x1="0.5" y1="-0.5" x2="110.021" y2="-0.5" transform="matrix(0.876409 -0.481567 0.400673 0.916221 399.712 317.552)" stroke="#B5B2C6" stroke-linecap="round"/>
<path d="M437.469 335.98C442.042 335.98 445.781 339.839 445.781 344.64C445.781 349.441 442.042 353.3 437.469 353.3C432.896 353.3 429.156 349.441 429.156 344.64C429.156 339.839 432.896 335.98 437.469 335.98Z" stroke="#B7B4C8"/>
<path d="M541.927 335.98C546.5 335.98 550.24 339.839 550.24 344.64C550.24 349.441 546.5 353.3 541.927 353.3C537.355 353.3 533.615 349.441 533.615 344.64C533.615 339.839 537.355 335.98 541.927 335.98Z" stroke="#B7B4C8"/>
<path d="M644.486 335.98C649.059 335.98 652.799 339.839 652.799 344.64C652.799 349.441 649.059 353.3 644.486 353.3C639.914 353.3 636.174 349.441 636.174 344.64C636.174 339.839 639.914 335.98 644.486 335.98Z" stroke="#B7B4C8"/>
<path d="M747.046 335.98C751.619 335.98 755.358 339.839 755.358 344.64C755.358 349.441 751.619 353.3 747.046 353.3C742.473 353.3 738.733 349.441 738.733 344.64C738.733 339.839 742.473 335.98 747.046 335.98Z" stroke="#B7B4C8"/>
</svg>
