<svg width="777" height="436" viewBox="0 0 777 436" fill="none" xmlns="http://www.w3.org/2000/svg">
<rect x="150" y="180" width="42" height="105" fill="#D41159"/>
<rect x="150" y="292" width="42" height="105" fill="#D41159"/>
<rect x="295" y="68" width="42" height="105" fill="#D41159"/>
<rect x="295" y="181" width="42" height="105" fill="#3EE33A"/>
<rect x="295" y="292" width="42" height="105" fill="#D41159"/>
<rect x="585" y="68" width="42" height="105" fill="#D41159"/>
<rect x="585" y="180" width="42" height="105" fill="#D41159"/>
<rect x="585" y="292" width="42" height="105" fill="#D41159"/>
<rect x="440" y="68" width="42" height="105" fill="#D41159"/>
<rect x="440" y="181" width="42" height="105" fill="#D41159"/>
<rect x="440" y="294" width="42" height="105" fill="#D41159"/>
<rect x="150" y="68" width="42" height="105" fill="#3EE33A"/>
<rect x="9" y="57" width="195" height="359" rx="10" fill="white"/>
<path d="M38.6486 100.484C38.6486 100.252 38.6121 100.047 38.5392 99.8691C38.4708 99.6868 38.3478 99.5228 38.1701 99.377C37.9969 99.2311 37.7553 99.0921 37.4454 98.96C37.1401 98.8278 36.7527 98.6934 36.2833 98.5566C35.7912 98.4108 35.3468 98.249 34.9503 98.0713C34.5538 97.889 34.2143 97.6816 33.9318 97.4492C33.6492 97.2168 33.4328 96.9502 33.2824 96.6494C33.132 96.3486 33.0568 96.0046 33.0568 95.6172C33.0568 95.2298 33.1365 94.8721 33.296 94.5439C33.4555 94.2158 33.6834 93.931 33.9796 93.6895C34.2804 93.4434 34.6382 93.252 35.0529 93.1152C35.4676 92.9785 35.9302 92.9102 36.4406 92.9102C37.188 92.9102 37.8214 93.0537 38.341 93.3408C38.865 93.6234 39.2638 93.9948 39.5372 94.4551C39.8107 94.9108 39.9474 95.3984 39.9474 95.918H38.6349C38.6349 95.5443 38.5552 95.2139 38.3956 94.9268C38.2361 94.6351 37.9946 94.4072 37.671 94.2432C37.3475 94.0745 36.9373 93.9902 36.4406 93.9902C35.9712 93.9902 35.5838 94.0609 35.2785 94.2021C34.9731 94.3434 34.7453 94.5348 34.5949 94.7764C34.449 95.0179 34.3761 95.2936 34.3761 95.6035C34.3761 95.8132 34.4194 96.0046 34.506 96.1777C34.5971 96.3464 34.7361 96.5036 34.923 96.6494C35.1144 96.7952 35.3559 96.9297 35.6476 97.0527C35.9438 97.1758 36.297 97.2943 36.7072 97.4082C37.2723 97.5677 37.7599 97.7454 38.1701 97.9414C38.5802 98.1374 38.9175 98.3584 39.1818 98.6045C39.4507 98.846 39.6489 99.1217 39.7765 99.4316C39.9087 99.737 39.9747 100.083 39.9747 100.471C39.9747 100.876 39.8927 101.243 39.7287 101.571C39.5646 101.899 39.3299 102.18 39.0246 102.412C38.7192 102.645 38.3524 102.825 37.924 102.952C37.5001 103.075 37.0262 103.137 36.5021 103.137C36.0418 103.137 35.5884 103.073 35.1417 102.945C34.6997 102.818 34.2964 102.626 33.9318 102.371C33.5718 102.116 33.2824 101.801 33.0636 101.428C32.8494 101.049 32.7423 100.612 32.7423 100.115H34.0548C34.0548 100.457 34.1209 100.751 34.2531 100.997C34.3852 101.239 34.5652 101.439 34.7931 101.599C35.0255 101.758 35.2876 101.877 35.5792 101.954C35.8755 102.027 36.1831 102.063 36.5021 102.063C36.9624 102.063 37.352 102 37.671 101.872C37.99 101.744 38.2316 101.562 38.3956 101.325C38.5643 101.088 38.6486 100.808 38.6486 100.484ZM45.3341 93.0469V103H44.0353V93.0469H45.3341ZM48.5333 93.0469V94.127H40.8429V93.0469H48.5333ZM53.1476 93.9287L49.8527 103H48.506L52.2999 93.0469H53.1681L53.1476 93.9287ZM55.9093 103L52.6076 93.9287L52.5871 93.0469H53.4552L57.2628 103H55.9093ZM55.7384 99.3154V100.396H50.1466V99.3154H55.7384ZM61.3849 93.0469V103H60.0861V93.0469H61.3849ZM64.5841 93.0469V94.127H56.8937V93.0469H64.5841ZM67.4757 93.0469V103H66.1564V93.0469H67.4757ZM75.1798 100.484C75.1798 100.252 75.1434 100.047 75.0704 99.8691C75.0021 99.6868 74.879 99.5228 74.7013 99.377C74.5281 99.2311 74.2866 99.0921 73.9767 98.96C73.6714 98.8278 73.284 98.6934 72.8146 98.5566C72.3224 98.4108 71.8781 98.249 71.4816 98.0713C71.0851 97.889 70.7456 97.6816 70.463 97.4492C70.1805 97.2168 69.964 96.9502 69.8136 96.6494C69.6632 96.3486 69.588 96.0046 69.588 95.6172C69.588 95.2298 69.6678 94.8721 69.8273 94.5439C69.9868 94.2158 70.2147 93.931 70.5109 93.6895C70.8117 93.4434 71.1694 93.252 71.5841 93.1152C71.9988 92.9785 72.4614 92.9102 72.9718 92.9102C73.7192 92.9102 74.3527 93.0537 74.8722 93.3408C75.3963 93.6234 75.7951 93.9948 76.0685 94.4551C76.3419 94.9108 76.4787 95.3984 76.4787 95.918H75.1662C75.1662 95.5443 75.0864 95.2139 74.9269 94.9268C74.7674 94.6351 74.5259 94.4072 74.2023 94.2432C73.8787 94.0745 73.4686 93.9902 72.9718 93.9902C72.5024 93.9902 72.115 94.0609 71.8097 94.2021C71.5044 94.3434 71.2765 94.5348 71.1261 94.7764C70.9803 95.0179 70.9074 95.2936 70.9074 95.6035C70.9074 95.8132 70.9507 96.0046 71.0372 96.1777C71.1284 96.3464 71.2674 96.5036 71.4542 96.6494C71.6456 96.7952 71.8872 96.9297 72.1788 97.0527C72.4751 97.1758 72.8283 97.2943 73.2384 97.4082C73.8035 97.5677 74.2912 97.7454 74.7013 97.9414C75.1115 98.1374 75.4487 98.3584 75.713 98.6045C75.9819 98.846 76.1802 99.1217 76.3078 99.4316C76.4399 99.737 76.506 100.083 76.506 100.471C76.506 100.876 76.424 101.243 76.2599 101.571C76.0958 101.899 75.8611 102.18 75.5558 102.412C75.2505 102.645 74.8836 102.825 74.4552 102.952C74.0314 103.075 73.5574 103.137 73.0333 103.137C72.5731 103.137 72.1196 103.073 71.673 102.945C71.2309 102.818 70.8276 102.626 70.463 102.371C70.103 102.116 69.8136 101.801 69.5949 101.428C69.3807 101.049 69.2736 100.612 69.2736 100.115H70.5861C70.5861 100.457 70.6522 100.751 70.7843 100.997C70.9165 101.239 71.0965 101.439 71.3244 101.599C71.5568 101.758 71.8188 101.877 72.1105 101.954C72.4067 102.027 72.7143 102.063 73.0333 102.063C73.4936 102.063 73.8833 102 74.2023 101.872C74.5213 101.744 74.7628 101.562 74.9269 101.325C75.0955 101.088 75.1798 100.808 75.1798 100.484ZM81.8654 93.0469V103H80.5665V93.0469H81.8654ZM85.0646 93.0469V94.127H77.3742V93.0469H85.0646ZM87.9562 93.0469V103H86.6369V93.0469H87.9562ZM96.3644 99.835H97.6769C97.6085 100.464 97.4285 101.027 97.1369 101.523C96.8452 102.02 96.4328 102.414 95.8996 102.706C95.3663 102.993 94.701 103.137 93.9035 103.137C93.3201 103.137 92.7892 103.027 92.3107 102.809C91.8367 102.59 91.4288 102.28 91.0871 101.879C90.7453 101.473 90.4809 100.988 90.2941 100.423C90.1118 99.8532 90.0206 99.2197 90.0206 98.5225V97.5312C90.0206 96.834 90.1118 96.2028 90.2941 95.6377C90.4809 95.068 90.7475 94.5804 91.0939 94.1748C91.4448 93.7692 91.8663 93.457 92.3585 93.2383C92.8507 93.0195 93.4044 92.9102 94.0197 92.9102C94.7716 92.9102 95.4074 93.0514 95.9269 93.334C96.4464 93.6165 96.8497 94.0085 97.1369 94.5098C97.4285 95.0065 97.6085 95.583 97.6769 96.2393H96.3644C96.3006 95.7744 96.1821 95.3757 96.0089 95.043C95.8357 94.7057 95.5897 94.446 95.2706 94.2637C94.9516 94.0814 94.5346 93.9902 94.0197 93.9902C93.5776 93.9902 93.188 94.0745 92.8507 94.2432C92.518 94.4118 92.2378 94.651 92.0099 94.9609C91.7866 95.2708 91.618 95.6423 91.504 96.0752C91.3901 96.5081 91.3331 96.9889 91.3331 97.5176V98.5225C91.3331 99.0101 91.3833 99.4681 91.4835 99.8965C91.5884 100.325 91.7456 100.701 91.9552 101.024C92.1649 101.348 92.4315 101.603 92.755 101.79C93.0786 101.972 93.4614 102.063 93.9035 102.063C94.464 102.063 94.9106 101.975 95.2433 101.797C95.576 101.619 95.8266 101.364 95.9953 101.031C96.1684 100.699 96.2915 100.3 96.3644 99.835ZM104.779 100.484C104.779 100.252 104.743 100.047 104.67 99.8691C104.602 99.6868 104.479 99.5228 104.301 99.377C104.128 99.2311 103.886 99.0921 103.576 98.96C103.271 98.8278 102.884 98.6934 102.414 98.5566C101.922 98.4108 101.478 98.249 101.081 98.0713C100.685 97.889 100.345 97.6816 100.063 97.4492C99.7801 97.2168 99.5636 96.9502 99.4132 96.6494C99.2628 96.3486 99.1876 96.0046 99.1876 95.6172C99.1876 95.2298 99.2674 94.8721 99.4269 94.5439C99.5864 94.2158 99.8143 93.931 100.11 93.6895C100.411 93.4434 100.769 93.252 101.184 93.1152C101.598 92.9785 102.061 92.9102 102.571 92.9102C103.319 92.9102 103.952 93.0537 104.472 93.3408C104.996 93.6234 105.395 93.9948 105.668 94.4551C105.942 94.9108 106.078 95.3984 106.078 95.918H104.766C104.766 95.5443 104.686 95.2139 104.527 94.9268C104.367 94.6351 104.125 94.4072 103.802 94.2432C103.478 94.0745 103.068 93.9902 102.571 93.9902C102.102 93.9902 101.715 94.0609 101.409 94.2021C101.104 94.3434 100.876 94.5348 100.726 94.7764C100.58 95.0179 100.507 95.2936 100.507 95.6035C100.507 95.8132 100.55 96.0046 100.637 96.1777C100.728 96.3464 100.867 96.5036 101.054 96.6494C101.245 96.7952 101.487 96.9297 101.778 97.0527C102.075 97.1758 102.428 97.2943 102.838 97.4082C103.403 97.5677 103.891 97.7454 104.301 97.9414C104.711 98.1374 105.048 98.3584 105.313 98.6045C105.582 98.846 105.78 99.1217 105.907 99.4316C106.04 99.737 106.106 100.083 106.106 100.471C106.106 100.876 106.024 101.243 105.86 101.571C105.695 101.899 105.461 102.18 105.155 102.412C104.85 102.645 104.483 102.825 104.055 102.952C103.631 103.075 103.157 103.137 102.633 103.137C102.173 103.137 101.719 103.073 101.273 102.945C100.831 102.818 100.427 102.626 100.063 102.371C99.7026 102.116 99.4132 101.801 99.1945 101.428C98.9803 101.049 98.8732 100.612 98.8732 100.115H100.186C100.186 100.457 100.252 100.751 100.384 100.997C100.516 101.239 100.696 101.439 100.924 101.599C101.156 101.758 101.418 101.877 101.71 101.954C102.006 102.027 102.314 102.063 102.633 102.063C103.093 102.063 103.483 102 103.802 101.872C104.121 101.744 104.362 101.562 104.527 101.325C104.695 101.088 104.779 100.808 104.779 100.484ZM112.579 93.0469V103H111.26V93.0469H112.579ZM116.749 97.5244V98.6045H112.292V97.5244H116.749ZM117.426 93.0469V94.127H112.292V93.0469H117.426ZM126.661 97.709V98.3379C126.661 99.0853 126.568 99.7552 126.381 100.348C126.194 100.94 125.925 101.444 125.574 101.858C125.223 102.273 124.802 102.59 124.31 102.809C123.822 103.027 123.275 103.137 122.669 103.137C122.081 103.137 121.541 103.027 121.049 102.809C120.561 102.59 120.138 102.273 119.777 101.858C119.422 101.444 119.146 100.94 118.95 100.348C118.754 99.7552 118.656 99.0853 118.656 98.3379V97.709C118.656 96.9616 118.752 96.2939 118.943 95.7061C119.139 95.1136 119.415 94.61 119.771 94.1953C120.126 93.776 120.548 93.457 121.035 93.2383C121.527 93.0195 122.068 92.9102 122.655 92.9102C123.262 92.9102 123.808 93.0195 124.296 93.2383C124.788 93.457 125.21 93.776 125.561 94.1953C125.916 94.61 126.187 95.1136 126.374 95.7061C126.566 96.2939 126.661 96.9616 126.661 97.709ZM125.356 98.3379V97.6953C125.356 97.1029 125.294 96.5788 125.171 96.123C125.053 95.6673 124.877 95.2845 124.645 94.9746C124.412 94.6647 124.127 94.43 123.79 94.2705C123.457 94.111 123.079 94.0312 122.655 94.0312C122.245 94.0312 121.874 94.111 121.541 94.2705C121.213 94.43 120.93 94.6647 120.693 94.9746C120.461 95.2845 120.281 95.6673 120.153 96.123C120.026 96.5788 119.962 97.1029 119.962 97.6953V98.3379C119.962 98.9349 120.026 99.4635 120.153 99.9238C120.281 100.38 120.463 100.765 120.7 101.079C120.942 101.389 121.227 101.624 121.555 101.783C121.888 101.943 122.259 102.022 122.669 102.022C123.097 102.022 123.478 101.943 123.811 101.783C124.143 101.624 124.424 101.389 124.652 101.079C124.884 100.765 125.059 100.38 125.178 99.9238C125.296 99.4635 125.356 98.9349 125.356 98.3379ZM128.637 93.0469H131.932C132.679 93.0469 133.31 93.1608 133.825 93.3887C134.345 93.6165 134.739 93.9538 135.008 94.4004C135.281 94.8424 135.418 95.387 135.418 96.0342C135.418 96.4899 135.325 96.9069 135.138 97.2852C134.956 97.6589 134.691 97.9779 134.345 98.2422C134.003 98.502 133.593 98.6956 133.114 98.8232L132.745 98.9668H129.649L129.635 97.8936H131.973C132.447 97.8936 132.841 97.8115 133.155 97.6475C133.47 97.4788 133.707 97.2533 133.866 96.9707C134.026 96.6882 134.106 96.376 134.106 96.0342C134.106 95.6514 134.03 95.3164 133.88 95.0293C133.73 94.7422 133.493 94.5212 133.169 94.3662C132.85 94.2067 132.438 94.127 131.932 94.127H129.956V103H128.637V93.0469ZM134.454 103L132.034 98.4883L133.408 98.4814L135.862 102.918V103H134.454ZM146.431 93.0469H147.743V99.7803C147.743 100.528 147.577 101.15 147.244 101.646C146.912 102.143 146.47 102.517 145.918 102.768C145.371 103.014 144.777 103.137 144.134 103.137C143.459 103.137 142.849 103.014 142.302 102.768C141.76 102.517 141.329 102.143 141.01 101.646C140.695 101.15 140.538 100.528 140.538 99.7803V93.0469H141.844V99.7803C141.844 100.3 141.94 100.728 142.131 101.065C142.322 101.403 142.589 101.653 142.931 101.817C143.277 101.981 143.678 102.063 144.134 102.063C144.594 102.063 144.995 101.981 145.337 101.817C145.683 101.653 145.952 101.403 146.144 101.065C146.335 100.728 146.431 100.3 146.431 99.7803V93.0469ZM155.823 99.835H157.136C157.068 100.464 156.888 101.027 156.596 101.523C156.304 102.02 155.892 102.414 155.359 102.706C154.825 102.993 154.16 103.137 153.362 103.137C152.779 103.137 152.248 103.027 151.77 102.809C151.296 102.59 150.888 102.28 150.546 101.879C150.204 101.473 149.94 100.988 149.753 100.423C149.571 99.8532 149.48 99.2197 149.48 98.5225V97.5312C149.48 96.834 149.571 96.2028 149.753 95.6377C149.94 95.068 150.207 94.5804 150.553 94.1748C150.904 93.7692 151.325 93.457 151.818 93.2383C152.31 93.0195 152.863 92.9102 153.479 92.9102C154.231 92.9102 154.866 93.0514 155.386 93.334C155.905 93.6165 156.309 94.0085 156.596 94.5098C156.888 95.0065 157.068 95.583 157.136 96.2393H155.823C155.76 95.7744 155.641 95.3757 155.468 95.043C155.295 94.7057 155.049 94.446 154.73 94.2637C154.411 94.0814 153.994 93.9902 153.479 93.9902C153.037 93.9902 152.647 94.0745 152.31 94.2432C151.977 94.4118 151.697 94.651 151.469 94.9609C151.246 95.2708 151.077 95.6423 150.963 96.0752C150.849 96.5081 150.792 96.9889 150.792 97.5176V98.5225C150.792 99.0101 150.842 99.4681 150.943 99.8965C151.047 100.325 151.205 100.701 151.414 101.024C151.624 101.348 151.89 101.603 152.214 101.79C152.538 101.972 152.92 102.063 153.362 102.063C153.923 102.063 154.37 101.975 154.702 101.797C155.035 101.619 155.286 101.364 155.454 101.031C155.627 100.699 155.75 100.3 155.823 99.835ZM168.6 101.961V103H162.085V102.091L165.346 98.4609C165.747 98.0143 166.057 97.6361 166.276 97.3262C166.499 97.0117 166.654 96.7314 166.74 96.4854C166.832 96.2347 166.877 95.9795 166.877 95.7197C166.877 95.3916 166.809 95.0954 166.672 94.8311C166.54 94.5622 166.344 94.348 166.084 94.1885C165.824 94.029 165.51 93.9492 165.141 93.9492C164.699 93.9492 164.33 94.0358 164.033 94.209C163.742 94.3776 163.523 94.6146 163.377 94.9199C163.231 95.2253 163.158 95.5762 163.158 95.9727H161.894C161.894 95.4121 162.017 94.8994 162.263 94.4346C162.509 93.9697 162.874 93.6006 163.357 93.3271C163.84 93.0492 164.434 92.9102 165.141 92.9102C165.77 92.9102 166.307 93.0218 166.754 93.2451C167.201 93.4639 167.542 93.7738 167.779 94.1748C168.021 94.5713 168.142 95.0361 168.142 95.5693C168.142 95.861 168.092 96.1572 167.991 96.458C167.896 96.7542 167.761 97.0505 167.588 97.3467C167.419 97.6429 167.221 97.9346 166.993 98.2217C166.77 98.5088 166.531 98.7913 166.276 99.0693L163.61 101.961H168.6ZM177.938 93.0469V103H176.611L171.601 95.3232V103H170.281V93.0469H171.601L176.632 100.744V93.0469H177.938ZM182.969 103H180.891L180.904 101.927H182.969C183.68 101.927 184.272 101.779 184.746 101.482C185.22 101.182 185.576 100.762 185.813 100.225C186.054 99.6823 186.175 99.0488 186.175 98.3242V97.7158C186.175 97.1462 186.107 96.6403 185.97 96.1982C185.833 95.7516 185.633 95.3757 185.368 95.0703C185.104 94.7604 184.78 94.5257 184.398 94.3662C184.019 94.2067 183.584 94.127 183.092 94.127H180.85V93.0469H183.092C183.744 93.0469 184.338 93.1562 184.876 93.375C185.414 93.5892 185.876 93.9014 186.264 94.3115C186.656 94.7171 186.957 95.2093 187.166 95.7881C187.376 96.3623 187.481 97.0094 187.481 97.7295V98.3242C187.481 99.0443 187.376 99.6937 187.166 100.272C186.957 100.847 186.653 101.337 186.257 101.742C185.865 102.148 185.391 102.46 184.835 102.679C184.284 102.893 183.662 103 182.969 103ZM181.595 93.0469V103H180.276V93.0469H181.595ZM91.3537 109.047V119H90.0343V109.047H91.3537ZM95.5236 113.524V114.604H91.0665V113.524H95.5236ZM96.2003 109.047V110.127H91.0665V109.047H96.2003ZM103.809 117.927V119H98.8322V117.927H103.809ZM99.0919 109.047V119H97.7726V109.047H99.0919ZM112.531 113.709V114.338C112.531 115.085 112.438 115.755 112.251 116.348C112.064 116.94 111.795 117.444 111.444 117.858C111.094 118.273 110.672 118.59 110.18 118.809C109.692 119.027 109.145 119.137 108.539 119.137C107.951 119.137 107.411 119.027 106.919 118.809C106.431 118.59 106.008 118.273 105.648 117.858C105.292 117.444 105.016 116.94 104.82 116.348C104.624 115.755 104.527 115.085 104.527 114.338V113.709C104.527 112.962 104.622 112.294 104.814 111.706C105.01 111.114 105.285 110.61 105.641 110.195C105.996 109.776 106.418 109.457 106.905 109.238C107.398 109.02 107.938 108.91 108.526 108.91C109.132 108.91 109.679 109.02 110.166 109.238C110.658 109.457 111.08 109.776 111.431 110.195C111.786 110.61 112.057 111.114 112.244 111.706C112.436 112.294 112.531 112.962 112.531 113.709ZM111.226 114.338V113.695C111.226 113.103 111.164 112.579 111.041 112.123C110.923 111.667 110.747 111.285 110.515 110.975C110.282 110.665 109.998 110.43 109.66 110.271C109.328 110.111 108.949 110.031 108.526 110.031C108.115 110.031 107.744 110.111 107.411 110.271C107.083 110.43 106.801 110.665 106.564 110.975C106.331 111.285 106.151 111.667 106.024 112.123C105.896 112.579 105.832 113.103 105.832 113.695V114.338C105.832 114.935 105.896 115.464 106.024 115.924C106.151 116.38 106.333 116.765 106.57 117.079C106.812 117.389 107.097 117.624 107.425 117.783C107.758 117.943 108.129 118.022 108.539 118.022C108.968 118.022 109.348 117.943 109.681 117.783C110.013 117.624 110.294 117.389 110.522 117.079C110.754 116.765 110.929 116.38 111.048 115.924C111.166 115.464 111.226 114.935 111.226 114.338ZM122.17 113.709V114.338C122.17 115.085 122.077 115.755 121.89 116.348C121.703 116.94 121.434 117.444 121.083 117.858C120.732 118.273 120.311 118.59 119.818 118.809C119.331 119.027 118.784 119.137 118.178 119.137C117.59 119.137 117.05 119.027 116.558 118.809C116.07 118.59 115.646 118.273 115.286 117.858C114.931 117.444 114.655 116.94 114.459 116.348C114.263 115.755 114.165 115.085 114.165 114.338V113.709C114.165 112.962 114.261 112.294 114.452 111.706C114.648 111.114 114.924 110.61 115.279 110.195C115.635 109.776 116.056 109.457 116.544 109.238C117.036 109.02 117.576 108.91 118.164 108.91C118.77 108.91 119.317 109.02 119.805 109.238C120.297 109.457 120.719 109.776 121.069 110.195C121.425 110.61 121.696 111.114 121.883 111.706C122.074 112.294 122.17 112.962 122.17 113.709ZM120.864 114.338V113.695C120.864 113.103 120.803 112.579 120.68 112.123C120.561 111.667 120.386 111.285 120.153 110.975C119.921 110.665 119.636 110.43 119.299 110.271C118.966 110.111 118.588 110.031 118.164 110.031C117.754 110.031 117.383 110.111 117.05 110.271C116.722 110.43 116.439 110.665 116.202 110.975C115.97 111.285 115.79 111.667 115.662 112.123C115.535 112.579 115.471 113.103 115.471 113.695V114.338C115.471 114.935 115.535 115.464 115.662 115.924C115.79 116.38 115.972 116.765 116.209 117.079C116.451 117.389 116.735 117.624 117.064 117.783C117.396 117.943 117.768 118.022 118.178 118.022C118.606 118.022 118.987 117.943 119.319 117.783C119.652 117.624 119.932 117.389 120.16 117.079C120.393 116.765 120.568 116.38 120.687 115.924C120.805 115.464 120.864 114.935 120.864 114.338ZM124.146 109.047H127.441C128.188 109.047 128.819 109.161 129.334 109.389C129.854 109.617 130.248 109.954 130.517 110.4C130.79 110.842 130.927 111.387 130.927 112.034C130.927 112.49 130.833 112.907 130.647 113.285C130.464 113.659 130.2 113.978 129.854 114.242C129.512 114.502 129.102 114.696 128.623 114.823L128.254 114.967H125.157L125.144 113.894H127.482C127.956 113.894 128.35 113.812 128.664 113.647C128.979 113.479 129.216 113.253 129.375 112.971C129.535 112.688 129.614 112.376 129.614 112.034C129.614 111.651 129.539 111.316 129.389 111.029C129.238 110.742 129.001 110.521 128.678 110.366C128.359 110.207 127.946 110.127 127.441 110.127H125.465V119H124.146V109.047ZM129.963 119L127.543 114.488L128.917 114.481L131.371 118.918V119H129.963Z" fill="black"/>
<ellipse cx="106" cy="194" rx="53.9018" ry="53.9018" fill="#D41159"/>
<path d="M150.315 163.315C146.286 157.496 141.15 152.527 135.2 148.692C129.25 144.858 122.603 142.233 115.638 140.967L106 194L150.315 163.315Z" fill="#7BFF78"/>
<rect x="9" y="21" width="195" height="28" rx="2" fill="#F6F6F6"/>
<path d="M19.9758 32.2532C19.938 31.917 19.7817 31.6566 19.5071 31.4719C19.2325 31.2849 18.8868 31.1914 18.4701 31.1914C18.1719 31.1914 17.9138 31.2387 17.696 31.3334C17.4782 31.4257 17.3089 31.5536 17.1882 31.7169C17.0698 31.8779 17.0106 32.0614 17.0106 32.2674C17.0106 32.4402 17.0509 32.5893 17.1314 32.7148C17.2142 32.8403 17.3219 32.9456 17.4545 33.0309C17.5895 33.1137 17.7339 33.1836 17.8878 33.2404C18.0416 33.2948 18.1896 33.3398 18.3317 33.3753L19.0419 33.56C19.2739 33.6168 19.5118 33.6937 19.7557 33.7908C19.9995 33.8879 20.2256 34.0157 20.4339 34.1743C20.6423 34.3329 20.8103 34.5294 20.9382 34.7638C21.0684 34.9982 21.1335 35.2787 21.1335 35.6054C21.1335 36.0174 21.027 36.3831 20.8139 36.7027C20.6032 37.0223 20.2966 37.2745 19.8942 37.4591C19.4941 37.6438 19.0099 37.7361 18.4417 37.7361C17.8972 37.7361 17.4261 37.6497 17.0284 37.4769C16.6307 37.3041 16.3193 37.059 16.0944 36.7418C15.8695 36.4222 15.7452 36.0434 15.7216 35.6054H16.8224C16.8437 35.8682 16.929 36.0872 17.0781 36.2624C17.2296 36.4352 17.4226 36.5642 17.6569 36.6495C17.8937 36.7323 18.1529 36.7738 18.4346 36.7738C18.7448 36.7738 19.0206 36.7252 19.2621 36.6282C19.5059 36.5287 19.6977 36.3914 19.8373 36.2162C19.977 36.0387 20.0469 35.8315 20.0469 35.5948C20.0469 35.3793 19.9853 35.203 19.8622 35.0657C19.7415 34.9283 19.5769 34.8147 19.3686 34.7247C19.1626 34.6348 18.9294 34.5555 18.669 34.4868L17.8096 34.2524C17.2273 34.0938 16.7656 33.8606 16.4247 33.5529C16.0862 33.2451 15.9169 32.8379 15.9169 32.3313C15.9169 31.9122 16.0305 31.5465 16.2578 31.234C16.4851 30.9215 16.7928 30.6788 17.1811 30.506C17.5693 30.3308 18.0073 30.2432 18.495 30.2432C18.9874 30.2432 19.4219 30.3296 19.7983 30.5024C20.1771 30.6753 20.4754 30.9132 20.6932 31.2162C20.911 31.5169 21.0246 31.8625 21.0341 32.2532H19.9758ZM24.7104 37.7255C24.173 37.7255 23.7101 37.6106 23.3219 37.381C22.936 37.149 22.6377 36.8235 22.427 36.4044C22.2187 35.983 22.1145 35.4894 22.1145 34.9236C22.1145 34.3649 22.2187 33.8725 22.427 33.4463C22.6377 33.0202 22.9313 32.6876 23.3077 32.4485C23.6865 32.2094 24.1292 32.0898 24.6358 32.0898C24.9436 32.0898 25.2419 32.1407 25.5307 32.2425C25.8195 32.3443 26.0788 32.5041 26.3084 32.7219C26.538 32.9397 26.7191 33.2226 26.8517 33.5706C26.9843 33.9163 27.0506 34.3365 27.0506 34.8313V35.2077H22.7146V34.4122H26.0101C26.0101 34.1329 25.9533 33.8855 25.8396 33.6701C25.726 33.4523 25.5662 33.2806 25.3602 33.1551C25.1566 33.0297 24.9175 32.9669 24.6429 32.9669C24.3446 32.9669 24.0842 33.0403 23.8617 33.1871C23.6415 33.3315 23.471 33.5209 23.3503 33.7553C23.2319 33.9873 23.1727 34.2394 23.1727 34.5117V35.1331C23.1727 35.4977 23.2367 35.8078 23.3645 36.0635C23.4947 36.3192 23.6758 36.5145 23.9078 36.6495C24.1398 36.782 24.4109 36.8483 24.721 36.8483C24.9223 36.8483 25.1057 36.8199 25.2715 36.7631C25.4372 36.7039 25.5804 36.6163 25.7011 36.5003C25.8219 36.3843 25.9142 36.2411 25.9781 36.0706L26.9831 36.2517C26.9026 36.5477 26.7582 36.8069 26.5499 37.0294C26.3439 37.2496 26.0847 37.4212 25.7722 37.5443C25.462 37.6651 25.1081 37.7255 24.7104 37.7255ZM29.816 37.7361C29.4704 37.7361 29.1579 37.6722 28.8785 37.5443C28.5992 37.4141 28.3778 37.2259 28.2145 36.9797C28.0535 36.7335 27.973 36.4317 27.973 36.0742C27.973 35.7664 28.0322 35.5131 28.1505 35.3142C28.2689 35.1154 28.4287 34.9579 28.6299 34.8419C28.8312 34.7259 29.0561 34.6383 29.3047 34.5792C29.5532 34.52 29.8066 34.475 30.0646 34.4442C30.3913 34.4063 30.6565 34.3756 30.8601 34.3519C31.0637 34.3258 31.2116 34.2844 31.304 34.2276C31.3963 34.1708 31.4424 34.0784 31.4424 33.9506V33.9257C31.4424 33.6156 31.3549 33.3753 31.1797 33.2049C31.0068 33.0344 30.7488 32.9492 30.4055 32.9492C30.048 32.9492 29.7663 33.0285 29.5603 33.1871C29.3567 33.3434 29.2159 33.5174 29.1378 33.7091L28.1399 33.4818C28.2583 33.1504 28.4311 32.8829 28.6584 32.6793C28.888 32.4733 29.152 32.3242 29.4503 32.2318C29.7486 32.1372 30.0622 32.0898 30.3913 32.0898C30.6091 32.0898 30.8399 32.1158 31.0838 32.1679C31.33 32.2176 31.5596 32.31 31.7727 32.4449C31.9881 32.5799 32.1645 32.7728 32.3018 33.0238C32.4391 33.2723 32.5078 33.5955 32.5078 33.9932V37.6154H31.4709V36.8696H31.4282C31.3596 37.0069 31.2566 37.1419 31.1193 37.2745C30.982 37.407 30.8056 37.5171 30.5902 37.6047C30.3747 37.6923 30.1167 37.7361 29.816 37.7361ZM30.0469 36.8838C30.3404 36.8838 30.5914 36.8258 30.7997 36.7098C31.0104 36.5938 31.1702 36.4423 31.2791 36.2553C31.3904 36.0659 31.446 35.8635 31.446 35.648V34.9449C31.4081 34.9828 31.3347 35.0183 31.2258 35.0515C31.1193 35.0822 30.9974 35.1095 30.8601 35.1331C30.7228 35.1544 30.589 35.1746 30.4588 35.1935C30.3286 35.2101 30.2197 35.2243 30.1321 35.2361C29.9261 35.2622 29.7379 35.3059 29.5674 35.3675C29.3994 35.4291 29.2644 35.5178 29.1626 35.6338C29.0632 35.7475 29.0135 35.899 29.0135 36.0884C29.0135 36.3512 29.1105 36.55 29.3047 36.685C29.4988 36.8175 29.7462 36.8838 30.0469 36.8838ZM33.922 37.6154V32.1608H34.9483V33.0273H35.0051C35.1046 32.7337 35.2797 32.5029 35.5307 32.3348C35.784 32.1644 36.0705 32.0791 36.3901 32.0791C36.4564 32.0791 36.5345 32.0815 36.6244 32.0863C36.7168 32.091 36.789 32.0969 36.8411 32.104V33.1196C36.7985 33.1078 36.7227 33.0948 36.6138 33.0806C36.5049 33.064 36.396 33.0557 36.2871 33.0557C36.0361 33.0557 35.8124 33.109 35.6159 33.2155C35.4218 33.3197 35.2679 33.4653 35.1543 33.6523C35.0406 33.837 34.9838 34.0477 34.9838 34.2844V37.6154H33.922ZM39.8622 37.7255C39.3343 37.7255 38.8797 37.6059 38.4986 37.3668C38.1198 37.1253 37.8286 36.7927 37.625 36.3689C37.4214 35.9452 37.3196 35.4598 37.3196 34.913C37.3196 34.359 37.4237 33.8701 37.6321 33.4463C37.8404 33.0202 38.134 32.6876 38.5128 32.4485C38.8915 32.2094 39.3378 32.0898 39.8515 32.0898C40.2658 32.0898 40.6352 32.1667 40.9595 32.3206C41.2838 32.4721 41.5454 32.6852 41.7443 32.9598C41.9455 33.2345 42.0651 33.5552 42.103 33.9222H41.0696C41.0128 33.6665 40.8826 33.4463 40.679 33.2617C40.4777 33.077 40.2078 32.9847 39.8693 32.9847C39.5734 32.9847 39.3141 33.0628 39.0916 33.2191C38.8714 33.3729 38.6998 33.5931 38.5767 33.8796C38.4536 34.1637 38.392 34.4998 38.392 34.8881C38.392 35.2858 38.4524 35.6291 38.5731 35.9179C38.6939 36.2068 38.8643 36.4305 39.0845 36.5891C39.307 36.7477 39.5686 36.827 39.8693 36.827C40.0705 36.827 40.2528 36.7903 40.4162 36.7169C40.5819 36.6412 40.7204 36.5335 40.8317 36.3938C40.9453 36.2541 41.0246 36.086 41.0696 35.8895H42.103C42.0651 36.2423 41.9503 36.5571 41.7585 36.8341C41.5667 37.1111 41.3099 37.3289 40.9879 37.4875C40.6683 37.6461 40.2931 37.7255 39.8622 37.7255ZM44.3002 34.3767V37.6154H43.2384V30.3426H44.286V33.0486H44.3535C44.4813 32.755 44.6766 32.5219 44.9394 32.349C45.2022 32.1762 45.5455 32.0898 45.9693 32.0898C46.3433 32.0898 46.67 32.1667 46.9494 32.3206C47.2311 32.4745 47.4489 32.7041 47.6028 33.0095C47.759 33.3126 47.8372 33.6914 47.8372 34.1459V37.6154H46.7754V34.2738C46.7754 33.8737 46.6724 33.5635 46.4664 33.3434C46.2605 33.1208 45.974 33.0095 45.607 33.0095C45.3561 33.0095 45.1312 33.0628 44.9323 33.1693C44.7358 33.2759 44.5808 33.4321 44.4671 33.6381C44.3559 33.8417 44.3002 34.0879 44.3002 34.3767Z" fill="#C4C4C4"/>
<rect x="35" y="257" width="143" height="142" fill="#EDEDED"/>
</svg>
