<svg width="221" height="428" viewBox="0 0 221 428" fill="none" xmlns="http://www.w3.org/2000/svg">
<rect x="13" y="52" width="195" height="359" rx="10" fill="white"/>
<path d="M42.6486 95.4844C42.6486 95.252 42.6121 95.0469 42.5392 94.8691C42.4708 94.6868 42.3478 94.5228 42.1701 94.377C41.9969 94.2311 41.7553 94.0921 41.4454 93.96C41.1401 93.8278 40.7527 93.6934 40.2833 93.5566C39.7912 93.4108 39.3468 93.249 38.9503 93.0713C38.5538 92.889 38.2143 92.6816 37.9318 92.4492C37.6492 92.2168 37.4328 91.9502 37.2824 91.6494C37.132 91.3486 37.0568 91.0046 37.0568 90.6172C37.0568 90.2298 37.1365 89.8721 37.296 89.5439C37.4555 89.2158 37.6834 88.931 37.9796 88.6895C38.2804 88.4434 38.6382 88.252 39.0529 88.1152C39.4676 87.9785 39.9302 87.9102 40.4406 87.9102C41.188 87.9102 41.8214 88.0537 42.341 88.3408C42.865 88.6234 43.2638 88.9948 43.5372 89.4551C43.8107 89.9108 43.9474 90.3984 43.9474 90.918H42.6349C42.6349 90.5443 42.5552 90.2139 42.3956 89.9268C42.2361 89.6351 41.9946 89.4072 41.671 89.2432C41.3475 89.0745 40.9373 88.9902 40.4406 88.9902C39.9712 88.9902 39.5838 89.0609 39.2785 89.2021C38.9731 89.3434 38.7453 89.5348 38.5949 89.7764C38.449 90.0179 38.3761 90.2936 38.3761 90.6035C38.3761 90.8132 38.4194 91.0046 38.506 91.1777C38.5971 91.3464 38.7361 91.5036 38.923 91.6494C39.1144 91.7952 39.3559 91.9297 39.6476 92.0527C39.9438 92.1758 40.297 92.2943 40.7072 92.4082C41.2723 92.5677 41.7599 92.7454 42.1701 92.9414C42.5802 93.1374 42.9175 93.3584 43.1818 93.6045C43.4507 93.846 43.6489 94.1217 43.7765 94.4316C43.9087 94.737 43.9747 95.0833 43.9747 95.4707C43.9747 95.8763 43.8927 96.2432 43.7287 96.5713C43.5646 96.8994 43.3299 97.1797 43.0246 97.4121C42.7192 97.6445 42.3524 97.8245 41.924 97.9521C41.5001 98.0752 41.0262 98.1367 40.5021 98.1367C40.0418 98.1367 39.5884 98.0729 39.1417 97.9453C38.6997 97.8177 38.2964 97.6263 37.9318 97.3711C37.5718 97.1159 37.2824 96.8014 37.0636 96.4277C36.8494 96.0495 36.7423 95.612 36.7423 95.1152H38.0548C38.0548 95.457 38.1209 95.751 38.2531 95.9971C38.3852 96.2386 38.5652 96.4391 38.7931 96.5986C39.0255 96.7581 39.2876 96.8766 39.5792 96.9541C39.8755 97.027 40.1831 97.0635 40.5021 97.0635C40.9624 97.0635 41.352 96.9997 41.671 96.8721C41.99 96.7445 42.2316 96.5622 42.3956 96.3252C42.5643 96.0882 42.6486 95.8079 42.6486 95.4844ZM49.3341 88.0469V98H48.0353V88.0469H49.3341ZM52.5333 88.0469V89.127H44.8429V88.0469H52.5333ZM57.1476 88.9287L53.8527 98H52.506L56.2999 88.0469H57.1681L57.1476 88.9287ZM59.9093 98L56.6076 88.9287L56.5871 88.0469H57.4552L61.2628 98H59.9093ZM59.7384 94.3154V95.3955H54.1466V94.3154H59.7384ZM65.3849 88.0469V98H64.0861V88.0469H65.3849ZM68.5841 88.0469V89.127H60.8937V88.0469H68.5841ZM71.4757 88.0469V98H70.1564V88.0469H71.4757ZM79.1798 95.4844C79.1798 95.252 79.1434 95.0469 79.0704 94.8691C79.0021 94.6868 78.879 94.5228 78.7013 94.377C78.5281 94.2311 78.2866 94.0921 77.9767 93.96C77.6714 93.8278 77.284 93.6934 76.8146 93.5566C76.3224 93.4108 75.8781 93.249 75.4816 93.0713C75.0851 92.889 74.7456 92.6816 74.463 92.4492C74.1805 92.2168 73.964 91.9502 73.8136 91.6494C73.6632 91.3486 73.588 91.0046 73.588 90.6172C73.588 90.2298 73.6678 89.8721 73.8273 89.5439C73.9868 89.2158 74.2147 88.931 74.5109 88.6895C74.8117 88.4434 75.1694 88.252 75.5841 88.1152C75.9988 87.9785 76.4614 87.9102 76.9718 87.9102C77.7192 87.9102 78.3527 88.0537 78.8722 88.3408C79.3963 88.6234 79.7951 88.9948 80.0685 89.4551C80.3419 89.9108 80.4787 90.3984 80.4787 90.918H79.1662C79.1662 90.5443 79.0864 90.2139 78.9269 89.9268C78.7674 89.6351 78.5259 89.4072 78.2023 89.2432C77.8787 89.0745 77.4686 88.9902 76.9718 88.9902C76.5024 88.9902 76.115 89.0609 75.8097 89.2021C75.5044 89.3434 75.2765 89.5348 75.1261 89.7764C74.9803 90.0179 74.9074 90.2936 74.9074 90.6035C74.9074 90.8132 74.9507 91.0046 75.0372 91.1777C75.1284 91.3464 75.2674 91.5036 75.4542 91.6494C75.6456 91.7952 75.8872 91.9297 76.1788 92.0527C76.4751 92.1758 76.8283 92.2943 77.2384 92.4082C77.8035 92.5677 78.2912 92.7454 78.7013 92.9414C79.1115 93.1374 79.4487 93.3584 79.713 93.6045C79.9819 93.846 80.1802 94.1217 80.3078 94.4316C80.4399 94.737 80.506 95.0833 80.506 95.4707C80.506 95.8763 80.424 96.2432 80.2599 96.5713C80.0958 96.8994 79.8611 97.1797 79.5558 97.4121C79.2505 97.6445 78.8836 97.8245 78.4552 97.9521C78.0314 98.0752 77.5574 98.1367 77.0333 98.1367C76.5731 98.1367 76.1196 98.0729 75.673 97.9453C75.2309 97.8177 74.8276 97.6263 74.463 97.3711C74.103 97.1159 73.8136 96.8014 73.5949 96.4277C73.3807 96.0495 73.2736 95.612 73.2736 95.1152H74.5861C74.5861 95.457 74.6522 95.751 74.7843 95.9971C74.9165 96.2386 75.0965 96.4391 75.3244 96.5986C75.5568 96.7581 75.8188 96.8766 76.1105 96.9541C76.4067 97.027 76.7143 97.0635 77.0333 97.0635C77.4936 97.0635 77.8833 96.9997 78.2023 96.8721C78.5213 96.7445 78.7628 96.5622 78.9269 96.3252C79.0955 96.0882 79.1798 95.8079 79.1798 95.4844ZM85.8654 88.0469V98H84.5665V88.0469H85.8654ZM89.0646 88.0469V89.127H81.3742V88.0469H89.0646ZM91.9562 88.0469V98H90.6369V88.0469H91.9562ZM100.364 94.835H101.677C101.609 95.4639 101.429 96.0267 101.137 96.5234C100.845 97.0202 100.433 97.4144 99.8996 97.7061C99.3663 97.9932 98.701 98.1367 97.9035 98.1367C97.3201 98.1367 96.7892 98.0273 96.3107 97.8086C95.8367 97.5898 95.4288 97.2799 95.0871 96.8789C94.7453 96.4733 94.4809 95.988 94.2941 95.4229C94.1118 94.8532 94.0206 94.2197 94.0206 93.5225V92.5312C94.0206 91.834 94.1118 91.2028 94.2941 90.6377C94.4809 90.068 94.7475 89.5804 95.0939 89.1748C95.4448 88.7692 95.8663 88.457 96.3585 88.2383C96.8507 88.0195 97.4044 87.9102 98.0197 87.9102C98.7716 87.9102 99.4074 88.0514 99.9269 88.334C100.446 88.6165 100.85 89.0085 101.137 89.5098C101.429 90.0065 101.609 90.583 101.677 91.2393H100.364C100.301 90.7744 100.182 90.3757 100.009 90.043C99.8357 89.7057 99.5897 89.446 99.2706 89.2637C98.9516 89.0814 98.5346 88.9902 98.0197 88.9902C97.5776 88.9902 97.188 89.0745 96.8507 89.2432C96.518 89.4118 96.2378 89.651 96.0099 89.9609C95.7866 90.2708 95.618 90.6423 95.504 91.0752C95.3901 91.5081 95.3331 91.9889 95.3331 92.5176V93.5225C95.3331 94.0101 95.3833 94.4681 95.4835 94.8965C95.5884 95.3249 95.7456 95.7008 95.9552 96.0244C96.1649 96.348 96.4315 96.6032 96.755 96.79C97.0786 96.9723 97.4614 97.0635 97.9035 97.0635C98.464 97.0635 98.9106 96.9746 99.2433 96.7969C99.576 96.6191 99.8266 96.3639 99.9953 96.0312C100.168 95.6986 100.291 95.2998 100.364 94.835ZM108.779 95.4844C108.779 95.252 108.743 95.0469 108.67 94.8691C108.602 94.6868 108.479 94.5228 108.301 94.377C108.128 94.2311 107.886 94.0921 107.576 93.96C107.271 93.8278 106.884 93.6934 106.414 93.5566C105.922 93.4108 105.478 93.249 105.081 93.0713C104.685 92.889 104.345 92.6816 104.063 92.4492C103.78 92.2168 103.564 91.9502 103.413 91.6494C103.263 91.3486 103.188 91.0046 103.188 90.6172C103.188 90.2298 103.267 89.8721 103.427 89.5439C103.586 89.2158 103.814 88.931 104.11 88.6895C104.411 88.4434 104.769 88.252 105.184 88.1152C105.598 87.9785 106.061 87.9102 106.571 87.9102C107.319 87.9102 107.952 88.0537 108.472 88.3408C108.996 88.6234 109.395 88.9948 109.668 89.4551C109.942 89.9108 110.078 90.3984 110.078 90.918H108.766C108.766 90.5443 108.686 90.2139 108.527 89.9268C108.367 89.6351 108.125 89.4072 107.802 89.2432C107.478 89.0745 107.068 88.9902 106.571 88.9902C106.102 88.9902 105.715 89.0609 105.409 89.2021C105.104 89.3434 104.876 89.5348 104.726 89.7764C104.58 90.0179 104.507 90.2936 104.507 90.6035C104.507 90.8132 104.55 91.0046 104.637 91.1777C104.728 91.3464 104.867 91.5036 105.054 91.6494C105.245 91.7952 105.487 91.9297 105.778 92.0527C106.075 92.1758 106.428 92.2943 106.838 92.4082C107.403 92.5677 107.891 92.7454 108.301 92.9414C108.711 93.1374 109.048 93.3584 109.313 93.6045C109.582 93.846 109.78 94.1217 109.907 94.4316C110.04 94.737 110.106 95.0833 110.106 95.4707C110.106 95.8763 110.024 96.2432 109.86 96.5713C109.695 96.8994 109.461 97.1797 109.155 97.4121C108.85 97.6445 108.483 97.8245 108.055 97.9521C107.631 98.0752 107.157 98.1367 106.633 98.1367C106.173 98.1367 105.719 98.0729 105.273 97.9453C104.831 97.8177 104.427 97.6263 104.063 97.3711C103.703 97.1159 103.413 96.8014 103.194 96.4277C102.98 96.0495 102.873 95.612 102.873 95.1152H104.186C104.186 95.457 104.252 95.751 104.384 95.9971C104.516 96.2386 104.696 96.4391 104.924 96.5986C105.156 96.7581 105.418 96.8766 105.71 96.9541C106.006 97.027 106.314 97.0635 106.633 97.0635C107.093 97.0635 107.483 96.9997 107.802 96.8721C108.121 96.7445 108.362 96.5622 108.527 96.3252C108.695 96.0882 108.779 95.8079 108.779 95.4844ZM116.579 88.0469V98H115.26V88.0469H116.579ZM120.749 92.5244V93.6045H116.292V92.5244H120.749ZM121.426 88.0469V89.127H116.292V88.0469H121.426ZM130.661 92.709V93.3379C130.661 94.0853 130.568 94.7552 130.381 95.3477C130.194 95.9401 129.925 96.4437 129.574 96.8584C129.223 97.2731 128.802 97.5898 128.31 97.8086C127.822 98.0273 127.275 98.1367 126.669 98.1367C126.081 98.1367 125.541 98.0273 125.049 97.8086C124.561 97.5898 124.138 97.2731 123.777 96.8584C123.422 96.4437 123.146 95.9401 122.95 95.3477C122.754 94.7552 122.656 94.0853 122.656 93.3379V92.709C122.656 91.9616 122.752 91.2939 122.943 90.7061C123.139 90.1136 123.415 89.61 123.771 89.1953C124.126 88.776 124.548 88.457 125.035 88.2383C125.527 88.0195 126.068 87.9102 126.655 87.9102C127.262 87.9102 127.808 88.0195 128.296 88.2383C128.788 88.457 129.21 88.776 129.561 89.1953C129.916 89.61 130.187 90.1136 130.374 90.7061C130.566 91.2939 130.661 91.9616 130.661 92.709ZM129.356 93.3379V92.6953C129.356 92.1029 129.294 91.5788 129.171 91.123C129.053 90.6673 128.877 90.2845 128.645 89.9746C128.412 89.6647 128.127 89.43 127.79 89.2705C127.457 89.111 127.079 89.0312 126.655 89.0312C126.245 89.0312 125.874 89.111 125.541 89.2705C125.213 89.43 124.93 89.6647 124.693 89.9746C124.461 90.2845 124.281 90.6673 124.153 91.123C124.026 91.5788 123.962 92.1029 123.962 92.6953V93.3379C123.962 93.9349 124.026 94.4635 124.153 94.9238C124.281 95.3796 124.463 95.7646 124.7 96.0791C124.942 96.389 125.227 96.6237 125.555 96.7832C125.888 96.9427 126.259 97.0225 126.669 97.0225C127.097 97.0225 127.478 96.9427 127.811 96.7832C128.143 96.6237 128.424 96.389 128.652 96.0791C128.884 95.7646 129.059 95.3796 129.178 94.9238C129.296 94.4635 129.356 93.9349 129.356 93.3379ZM132.637 88.0469H135.932C136.679 88.0469 137.31 88.1608 137.825 88.3887C138.345 88.6165 138.739 88.9538 139.008 89.4004C139.281 89.8424 139.418 90.387 139.418 91.0342C139.418 91.4899 139.325 91.9069 139.138 92.2852C138.956 92.6589 138.691 92.9779 138.345 93.2422C138.003 93.502 137.593 93.6956 137.114 93.8232L136.745 93.9668H133.649L133.635 92.8936H135.973C136.447 92.8936 136.841 92.8115 137.155 92.6475C137.47 92.4788 137.707 92.2533 137.866 91.9707C138.026 91.6882 138.106 91.376 138.106 91.0342C138.106 90.6514 138.03 90.3164 137.88 90.0293C137.73 89.7422 137.493 89.5212 137.169 89.3662C136.85 89.2067 136.438 89.127 135.932 89.127H133.956V98H132.637V88.0469ZM138.454 98L136.034 93.4883L137.408 93.4814L139.862 97.918V98H138.454ZM150.431 88.0469H151.743V94.7803C151.743 95.5277 151.577 96.1497 151.244 96.6465C150.912 97.1432 150.47 97.5169 149.918 97.7676C149.371 98.0137 148.777 98.1367 148.134 98.1367C147.459 98.1367 146.849 98.0137 146.302 97.7676C145.76 97.5169 145.329 97.1432 145.01 96.6465C144.695 96.1497 144.538 95.5277 144.538 94.7803V88.0469H145.844V94.7803C145.844 95.2998 145.94 95.7282 146.131 96.0654C146.322 96.4027 146.589 96.6533 146.931 96.8174C147.277 96.9814 147.678 97.0635 148.134 97.0635C148.594 97.0635 148.995 96.9814 149.337 96.8174C149.683 96.6533 149.952 96.4027 150.144 96.0654C150.335 95.7282 150.431 95.2998 150.431 94.7803V88.0469ZM159.823 94.835H161.136C161.068 95.4639 160.888 96.0267 160.596 96.5234C160.304 97.0202 159.892 97.4144 159.359 97.7061C158.825 97.9932 158.16 98.1367 157.362 98.1367C156.779 98.1367 156.248 98.0273 155.77 97.8086C155.296 97.5898 154.888 97.2799 154.546 96.8789C154.204 96.4733 153.94 95.988 153.753 95.4229C153.571 94.8532 153.48 94.2197 153.48 93.5225V92.5312C153.48 91.834 153.571 91.2028 153.753 90.6377C153.94 90.068 154.207 89.5804 154.553 89.1748C154.904 88.7692 155.325 88.457 155.818 88.2383C156.31 88.0195 156.863 87.9102 157.479 87.9102C158.231 87.9102 158.866 88.0514 159.386 88.334C159.905 88.6165 160.309 89.0085 160.596 89.5098C160.888 90.0065 161.068 90.583 161.136 91.2393H159.823C159.76 90.7744 159.641 90.3757 159.468 90.043C159.295 89.7057 159.049 89.446 158.73 89.2637C158.411 89.0814 157.994 88.9902 157.479 88.9902C157.037 88.9902 156.647 89.0745 156.31 89.2432C155.977 89.4118 155.697 89.651 155.469 89.9609C155.246 90.2708 155.077 90.6423 154.963 91.0752C154.849 91.5081 154.792 91.9889 154.792 92.5176V93.5225C154.792 94.0101 154.842 94.4681 154.943 94.8965C155.047 95.3249 155.205 95.7008 155.414 96.0244C155.624 96.348 155.89 96.6032 156.214 96.79C156.538 96.9723 156.92 97.0635 157.362 97.0635C157.923 97.0635 158.37 96.9746 158.702 96.7969C159.035 96.6191 159.286 96.3639 159.454 96.0312C159.627 95.6986 159.75 95.2998 159.823 94.835ZM172.6 96.9609V98H166.085V97.0908L169.346 93.4609C169.747 93.0143 170.057 92.6361 170.276 92.3262C170.499 92.0117 170.654 91.7314 170.74 91.4854C170.832 91.2347 170.877 90.9795 170.877 90.7197C170.877 90.3916 170.809 90.0954 170.672 89.8311C170.54 89.5622 170.344 89.348 170.084 89.1885C169.824 89.029 169.51 88.9492 169.141 88.9492C168.699 88.9492 168.33 89.0358 168.033 89.209C167.742 89.3776 167.523 89.6146 167.377 89.9199C167.231 90.2253 167.158 90.5762 167.158 90.9727H165.894C165.894 90.4121 166.017 89.8994 166.263 89.4346C166.509 88.9697 166.874 88.6006 167.357 88.3271C167.84 88.0492 168.434 87.9102 169.141 87.9102C169.77 87.9102 170.307 88.0218 170.754 88.2451C171.201 88.4639 171.542 88.7738 171.779 89.1748C172.021 89.5713 172.142 90.0361 172.142 90.5693C172.142 90.861 172.092 91.1572 171.991 91.458C171.896 91.7542 171.761 92.0505 171.588 92.3467C171.419 92.6429 171.221 92.9346 170.993 93.2217C170.77 93.5088 170.531 93.7913 170.276 94.0693L167.61 96.9609H172.6ZM181.938 88.0469V98H180.611L175.601 90.3232V98H174.281V88.0469H175.601L180.632 95.7441V88.0469H181.938ZM186.969 98H184.891L184.904 96.9268H186.969C187.68 96.9268 188.272 96.7786 188.746 96.4824C189.22 96.1816 189.576 95.7624 189.813 95.2246C190.054 94.6823 190.175 94.0488 190.175 93.3242V92.7158C190.175 92.1462 190.107 91.6403 189.97 91.1982C189.833 90.7516 189.633 90.3757 189.368 90.0703C189.104 89.7604 188.78 89.5257 188.398 89.3662C188.019 89.2067 187.584 89.127 187.092 89.127H184.85V88.0469H187.092C187.744 88.0469 188.338 88.1562 188.876 88.375C189.414 88.5892 189.876 88.9014 190.264 89.3115C190.656 89.7171 190.957 90.2093 191.166 90.7881C191.376 91.3623 191.481 92.0094 191.481 92.7295V93.3242C191.481 94.0443 191.376 94.6937 191.166 95.2725C190.957 95.8467 190.653 96.3366 190.257 96.7422C189.865 97.1478 189.391 97.46 188.835 97.6787C188.284 97.8929 187.662 98 186.969 98ZM185.595 88.0469V98H184.276V88.0469H185.595ZM95.3537 104.047V114H94.0343V104.047H95.3537ZM99.5236 108.524V109.604H95.0665V108.524H99.5236ZM100.2 104.047V105.127H95.0665V104.047H100.2ZM107.809 112.927V114H102.832V112.927H107.809ZM103.092 104.047V114H101.773V104.047H103.092ZM116.531 108.709V109.338C116.531 110.085 116.438 110.755 116.251 111.348C116.064 111.94 115.795 112.444 115.444 112.858C115.094 113.273 114.672 113.59 114.18 113.809C113.692 114.027 113.145 114.137 112.539 114.137C111.951 114.137 111.411 114.027 110.919 113.809C110.431 113.59 110.008 113.273 109.648 112.858C109.292 112.444 109.016 111.94 108.82 111.348C108.624 110.755 108.527 110.085 108.527 109.338V108.709C108.527 107.962 108.622 107.294 108.814 106.706C109.01 106.114 109.285 105.61 109.641 105.195C109.996 104.776 110.418 104.457 110.905 104.238C111.398 104.02 111.938 103.91 112.526 103.91C113.132 103.91 113.679 104.02 114.166 104.238C114.658 104.457 115.08 104.776 115.431 105.195C115.786 105.61 116.057 106.114 116.244 106.706C116.436 107.294 116.531 107.962 116.531 108.709ZM115.226 109.338V108.695C115.226 108.103 115.164 107.579 115.041 107.123C114.923 106.667 114.747 106.285 114.515 105.975C114.282 105.665 113.998 105.43 113.66 105.271C113.328 105.111 112.949 105.031 112.526 105.031C112.115 105.031 111.744 105.111 111.411 105.271C111.083 105.43 110.801 105.665 110.564 105.975C110.331 106.285 110.151 106.667 110.024 107.123C109.896 107.579 109.832 108.103 109.832 108.695V109.338C109.832 109.935 109.896 110.464 110.024 110.924C110.151 111.38 110.333 111.765 110.57 112.079C110.812 112.389 111.097 112.624 111.425 112.783C111.758 112.943 112.129 113.022 112.539 113.022C112.968 113.022 113.348 112.943 113.681 112.783C114.013 112.624 114.294 112.389 114.522 112.079C114.754 111.765 114.929 111.38 115.048 110.924C115.166 110.464 115.226 109.935 115.226 109.338ZM126.17 108.709V109.338C126.17 110.085 126.077 110.755 125.89 111.348C125.703 111.94 125.434 112.444 125.083 112.858C124.732 113.273 124.311 113.59 123.818 113.809C123.331 114.027 122.784 114.137 122.178 114.137C121.59 114.137 121.05 114.027 120.558 113.809C120.07 113.59 119.646 113.273 119.286 112.858C118.931 112.444 118.655 111.94 118.459 111.348C118.263 110.755 118.165 110.085 118.165 109.338V108.709C118.165 107.962 118.261 107.294 118.452 106.706C118.648 106.114 118.924 105.61 119.279 105.195C119.635 104.776 120.056 104.457 120.544 104.238C121.036 104.02 121.576 103.91 122.164 103.91C122.77 103.91 123.317 104.02 123.805 104.238C124.297 104.457 124.719 104.776 125.069 105.195C125.425 105.61 125.696 106.114 125.883 106.706C126.074 107.294 126.17 107.962 126.17 108.709ZM124.864 109.338V108.695C124.864 108.103 124.803 107.579 124.68 107.123C124.561 106.667 124.386 106.285 124.153 105.975C123.921 105.665 123.636 105.43 123.299 105.271C122.966 105.111 122.588 105.031 122.164 105.031C121.754 105.031 121.383 105.111 121.05 105.271C120.722 105.43 120.439 105.665 120.202 105.975C119.97 106.285 119.79 106.667 119.662 107.123C119.535 107.579 119.471 108.103 119.471 108.695V109.338C119.471 109.935 119.535 110.464 119.662 110.924C119.79 111.38 119.972 111.765 120.209 112.079C120.451 112.389 120.735 112.624 121.064 112.783C121.396 112.943 121.768 113.022 122.178 113.022C122.606 113.022 122.987 112.943 123.319 112.783C123.652 112.624 123.932 112.389 124.16 112.079C124.393 111.765 124.568 111.38 124.687 110.924C124.805 110.464 124.864 109.935 124.864 109.338ZM128.146 104.047H131.441C132.188 104.047 132.819 104.161 133.334 104.389C133.854 104.617 134.248 104.954 134.517 105.4C134.79 105.842 134.927 106.387 134.927 107.034C134.927 107.49 134.833 107.907 134.647 108.285C134.464 108.659 134.2 108.978 133.854 109.242C133.512 109.502 133.102 109.696 132.623 109.823L132.254 109.967H129.157L129.144 108.894H131.482C131.956 108.894 132.35 108.812 132.664 108.647C132.979 108.479 133.216 108.253 133.375 107.971C133.535 107.688 133.614 107.376 133.614 107.034C133.614 106.651 133.539 106.316 133.389 106.029C133.238 105.742 133.001 105.521 132.678 105.366C132.359 105.207 131.946 105.127 131.441 105.127H129.465V114H128.146V104.047ZM133.963 114L131.543 109.488L132.917 109.481L135.371 113.918V114H133.963Z" fill="black"/>
<ellipse cx="110" cy="189" rx="53.9018" ry="53.9018" fill="#D41159"/>
<path d="M155.315 158.315C151.286 152.496 146.15 147.527 140.2 143.692C134.25 139.858 127.603 137.233 120.638 135.967L111 189L155.315 158.315Z" fill="#7BFF78"/>
<rect x="13" y="16" width="195" height="28" rx="2" fill="#F6F6F6"/>
<path d="M23.9758 27.2532C23.938 26.917 23.7817 26.6566 23.5071 26.4719C23.2325 26.2849 22.8868 26.1914 22.4701 26.1914C22.1719 26.1914 21.9138 26.2387 21.696 26.3334C21.4782 26.4257 21.3089 26.5536 21.1882 26.7169C21.0698 26.8779 21.0106 27.0614 21.0106 27.2674C21.0106 27.4402 21.0509 27.5893 21.1314 27.7148C21.2142 27.8403 21.3219 27.9456 21.4545 28.0309C21.5895 28.1137 21.7339 28.1836 21.8878 28.2404C22.0416 28.2948 22.1896 28.3398 22.3317 28.3753L23.0419 28.56C23.2739 28.6168 23.5118 28.6937 23.7557 28.7908C23.9995 28.8879 24.2256 29.0157 24.4339 29.1743C24.6423 29.3329 24.8103 29.5294 24.9382 29.7638C25.0684 29.9982 25.1335 30.2787 25.1335 30.6054C25.1335 31.0174 25.027 31.3831 24.8139 31.7027C24.6032 32.0223 24.2966 32.2745 23.8942 32.4591C23.4941 32.6438 23.0099 32.7361 22.4417 32.7361C21.8972 32.7361 21.4261 32.6497 21.0284 32.4769C20.6307 32.3041 20.3193 32.059 20.0944 31.7418C19.8695 31.4222 19.7452 31.0434 19.7216 30.6054H20.8224C20.8437 30.8682 20.929 31.0872 21.0781 31.2624C21.2296 31.4352 21.4226 31.5642 21.6569 31.6495C21.8937 31.7323 22.1529 31.7738 22.4346 31.7738C22.7448 31.7738 23.0206 31.7252 23.2621 31.6282C23.5059 31.5287 23.6977 31.3914 23.8373 31.2162C23.977 31.0387 24.0469 30.8315 24.0469 30.5948C24.0469 30.3793 23.9853 30.203 23.8622 30.0657C23.7415 29.9283 23.5769 29.8147 23.3686 29.7247C23.1626 29.6348 22.9294 29.5555 22.669 29.4868L21.8096 29.2524C21.2273 29.0938 20.7656 28.8606 20.4247 28.5529C20.0862 28.2451 19.9169 27.8379 19.9169 27.3313C19.9169 26.9122 20.0305 26.5465 20.2578 26.234C20.4851 25.9215 20.7928 25.6788 21.1811 25.506C21.5693 25.3308 22.0073 25.2432 22.495 25.2432C22.9874 25.2432 23.4219 25.3296 23.7983 25.5024C24.1771 25.6753 24.4754 25.9132 24.6932 26.2162C24.911 26.5169 25.0246 26.8625 25.0341 27.2532H23.9758ZM28.7104 32.7255C28.173 32.7255 27.7101 32.6106 27.3219 32.381C26.936 32.149 26.6377 31.8235 26.427 31.4044C26.2187 30.983 26.1145 30.4894 26.1145 29.9236C26.1145 29.3649 26.2187 28.8725 26.427 28.4463C26.6377 28.0202 26.9313 27.6876 27.3077 27.4485C27.6865 27.2094 28.1292 27.0898 28.6358 27.0898C28.9436 27.0898 29.2419 27.1407 29.5307 27.2425C29.8195 27.3443 30.0788 27.5041 30.3084 27.7219C30.538 27.9397 30.7191 28.2226 30.8517 28.5706C30.9843 28.9163 31.0506 29.3365 31.0506 29.8313V30.2077H26.7146V29.4122H30.0101C30.0101 29.1329 29.9533 28.8855 29.8396 28.6701C29.726 28.4523 29.5662 28.2806 29.3602 28.1551C29.1566 28.0297 28.9175 27.9669 28.6429 27.9669C28.3446 27.9669 28.0842 28.0403 27.8617 28.1871C27.6415 28.3315 27.471 28.5209 27.3503 28.7553C27.2319 28.9873 27.1727 29.2394 27.1727 29.5117V30.1331C27.1727 30.4977 27.2367 30.8078 27.3645 31.0635C27.4947 31.3192 27.6758 31.5145 27.9078 31.6495C28.1398 31.782 28.4109 31.8483 28.721 31.8483C28.9223 31.8483 29.1057 31.8199 29.2715 31.7631C29.4372 31.7039 29.5804 31.6163 29.7011 31.5003C29.8219 31.3843 29.9142 31.2411 29.9781 31.0706L30.9831 31.2517C30.9026 31.5477 30.7582 31.8069 30.5499 32.0294C30.3439 32.2496 30.0847 32.4212 29.7722 32.5443C29.462 32.6651 29.1081 32.7255 28.7104 32.7255ZM33.816 32.7361C33.4704 32.7361 33.1579 32.6722 32.8785 32.5443C32.5992 32.4141 32.3778 32.2259 32.2145 31.9797C32.0535 31.7335 31.973 31.4317 31.973 31.0742C31.973 30.7664 32.0322 30.5131 32.1505 30.3142C32.2689 30.1154 32.4287 29.9579 32.6299 29.8419C32.8312 29.7259 33.0561 29.6383 33.3047 29.5792C33.5532 29.52 33.8066 29.475 34.0646 29.4442C34.3913 29.4063 34.6565 29.3756 34.8601 29.3519C35.0637 29.3258 35.2116 29.2844 35.304 29.2276C35.3963 29.1708 35.4424 29.0784 35.4424 28.9506V28.9257C35.4424 28.6156 35.3549 28.3753 35.1797 28.2049C35.0068 28.0344 34.7488 27.9492 34.4055 27.9492C34.048 27.9492 33.7663 28.0285 33.5603 28.1871C33.3567 28.3434 33.2159 28.5174 33.1378 28.7091L32.1399 28.4818C32.2583 28.1504 32.4311 27.8829 32.6584 27.6793C32.888 27.4733 33.152 27.3242 33.4503 27.2318C33.7486 27.1372 34.0622 27.0898 34.3913 27.0898C34.6091 27.0898 34.8399 27.1158 35.0838 27.1679C35.33 27.2176 35.5596 27.31 35.7727 27.4449C35.9881 27.5799 36.1645 27.7728 36.3018 28.0238C36.4391 28.2723 36.5078 28.5955 36.5078 28.9932V32.6154H35.4709V31.8696H35.4282C35.3596 32.0069 35.2566 32.1419 35.1193 32.2745C34.982 32.407 34.8056 32.5171 34.5902 32.6047C34.3747 32.6923 34.1167 32.7361 33.816 32.7361ZM34.0469 31.8838C34.3404 31.8838 34.5914 31.8258 34.7997 31.7098C35.0104 31.5938 35.1702 31.4423 35.2791 31.2553C35.3904 31.0659 35.446 30.8635 35.446 30.648V29.9449C35.4081 29.9828 35.3347 30.0183 35.2258 30.0515C35.1193 30.0822 34.9974 30.1095 34.8601 30.1331C34.7228 30.1544 34.589 30.1746 34.4588 30.1935C34.3286 30.2101 34.2197 30.2243 34.1321 30.2361C33.9261 30.2622 33.7379 30.3059 33.5674 30.3675C33.3994 30.4291 33.2644 30.5178 33.1626 30.6338C33.0632 30.7475 33.0135 30.899 33.0135 31.0884C33.0135 31.3512 33.1105 31.55 33.3047 31.685C33.4988 31.8175 33.7462 31.8838 34.0469 31.8838ZM37.922 32.6154V27.1608H38.9483V28.0273H39.0051C39.1046 27.7337 39.2797 27.5029 39.5307 27.3348C39.784 27.1644 40.0705 27.0791 40.3901 27.0791C40.4564 27.0791 40.5345 27.0815 40.6244 27.0863C40.7168 27.091 40.789 27.0969 40.8411 27.104V28.1196C40.7985 28.1078 40.7227 28.0948 40.6138 28.0806C40.5049 28.064 40.396 28.0557 40.2871 28.0557C40.0361 28.0557 39.8124 28.109 39.6159 28.2155C39.4218 28.3197 39.2679 28.4653 39.1543 28.6523C39.0406 28.837 38.9838 29.0477 38.9838 29.2844V32.6154H37.922ZM43.8622 32.7255C43.3343 32.7255 42.8797 32.6059 42.4986 32.3668C42.1198 32.1253 41.8286 31.7927 41.625 31.3689C41.4214 30.9452 41.3196 30.4598 41.3196 29.913C41.3196 29.359 41.4237 28.8701 41.6321 28.4463C41.8404 28.0202 42.134 27.6876 42.5128 27.4485C42.8915 27.2094 43.3378 27.0898 43.8515 27.0898C44.2658 27.0898 44.6352 27.1667 44.9595 27.3206C45.2838 27.4721 45.5454 27.6852 45.7443 27.9598C45.9455 28.2345 46.0651 28.5552 46.103 28.9222H45.0696C45.0128 28.6665 44.8826 28.4463 44.679 28.2617C44.4777 28.077 44.2078 27.9847 43.8693 27.9847C43.5734 27.9847 43.3141 28.0628 43.0916 28.2191C42.8714 28.3729 42.6998 28.5931 42.5767 28.8796C42.4536 29.1637 42.392 29.4998 42.392 29.8881C42.392 30.2858 42.4524 30.6291 42.5731 30.9179C42.6939 31.2068 42.8643 31.4305 43.0845 31.5891C43.307 31.7477 43.5686 31.827 43.8693 31.827C44.0705 31.827 44.2528 31.7903 44.4162 31.7169C44.5819 31.6412 44.7204 31.5335 44.8317 31.3938C44.9453 31.2541 45.0246 31.086 45.0696 30.8895H46.103C46.0651 31.2423 45.9503 31.5571 45.7585 31.8341C45.5667 32.1111 45.3099 32.3289 44.9879 32.4875C44.6683 32.6461 44.2931 32.7255 43.8622 32.7255ZM48.3002 29.3767V32.6154H47.2384V25.3426H48.286V28.0486H48.3535C48.4813 27.755 48.6766 27.5219 48.9394 27.349C49.2022 27.1762 49.5455 27.0898 49.9693 27.0898C50.3433 27.0898 50.67 27.1667 50.9494 27.3206C51.2311 27.4745 51.4489 27.7041 51.6028 28.0095C51.759 28.3126 51.8372 28.6914 51.8372 29.1459V32.6154H50.7754V29.2738C50.7754 28.8737 50.6724 28.5635 50.4664 28.3434C50.2605 28.1208 49.974 28.0095 49.607 28.0095C49.3561 28.0095 49.1312 28.0628 48.9323 28.1693C48.7358 28.2759 48.5808 28.4321 48.4671 28.6381C48.3559 28.8417 48.3002 29.0879 48.3002 29.3767Z" fill="#C4C4C4"/>
<rect x="35" y="257" width="143" height="142" fill="#EDEDED"/>
</svg>
